<svg width="14" height="14" viewBox="0 0 14 14" fill="none" xmlns="http://www.w3.org/2000/svg">
<path d="M12.7034 1H9.74687C9.58307 1 9.45032 1.13161 9.45032 1.29399C9.45032 1.45637 9.58307 1.58798 9.74687 1.58798H11.9921L6.22386 7.36117C6.11324 7.47728 6.11625 7.65952 6.23058 7.77195C6.34491 7.88438 6.52887 7.88564 6.64494 7.77505L12.4069 2.0084V4.22503C12.4069 4.38741 12.5396 4.51902 12.7034 4.51902C12.8672 4.51902 13 4.38741 13 4.22503V1.29399C13 1.13161 12.8672 1 12.7034 1Z" fill="#1B2F6E" stroke="#2D1C35" stroke-width="0.5"/>
<path d="M10.9779 7.78212C10.8079 7.78212 10.6701 7.91992 10.6701 8.08995V11.4609C10.6695 11.9708 10.2564 12.3838 9.74657 12.3844H2.53915C2.0293 12.3838 1.61626 11.9708 1.61566 11.4609V4.2535C1.61626 3.74366 2.0293 3.33062 2.53915 3.33001H5.91012C6.08015 3.33001 6.21795 3.19221 6.21795 3.02218C6.21795 2.85216 6.08015 2.71436 5.91012 2.71436H2.53915C1.68949 2.71532 1.00096 3.40385 1 4.2535V11.4609C1.00096 12.3106 1.68949 12.9991 2.53915 13.0001H9.74657C10.5962 12.9991 11.2848 12.3106 11.2857 11.4609V8.08995C11.2857 7.91992 11.1479 7.78212 10.9779 7.78212Z" fill="#1B2F6E" stroke="#2D1C35" stroke-width="0.5"/>
</svg>
